<svg width="36" height="26" viewBox="0 0 36 26" fill="none" xmlns="http://www.w3.org/2000/svg">
<path d="M8.69599 13.9584C7.93208 13.9584 7.31145 14.579 7.31145 15.3429C7.31145 16.1068 7.93208 16.7274 8.69599 16.7274C9.45989 16.7274 10.0805 16.1068 10.0805 15.3429C10.0805 14.579 9.45989 13.9584 8.69599 13.9584ZM8.64055 15.3429C8.64055 15.3119 8.66503 15.2875 8.69599 15.2875C8.72695 15.2875 8.75142 15.3119 8.75142 15.3429C8.75142 15.4048 8.64055 15.4048 8.64055 15.3429Z" fill="#0084FF"/>
<path d="M16.6713 11.2995C14.4415 11.2995 12.6286 13.1131 12.6286 15.3422C12.6286 17.5712 14.4422 19.3849 16.6713 19.3849C18.9003 19.3849 20.714 17.5712 20.714 15.3422C20.714 13.1131 18.9003 11.2995 16.6713 11.2995ZM16.6713 17.9449C15.2363 17.9449 14.0685 16.7771 14.0685 15.3422C14.0685 13.9072 15.2363 12.7394 16.6713 12.7394C18.1062 12.7394 19.274 13.9072 19.274 15.3422C19.274 16.7771 18.1062 17.9449 16.6713 17.9449Z" fill="#0084FF"/>
<path d="M36 6.70234C36 5.91107 35.6537 5.20478 35.1123 4.70799C35.6537 4.2112 36 3.5049 36 2.71363C36 1.2175 34.7825 0 33.2857 0H25.3104C23.8143 0 22.596 1.21678 22.596 2.71363C22.596 3.5049 22.9423 4.2112 23.4838 4.70799C23.2894 4.88582 23.1245 5.09031 22.9884 5.31782H0.719985C0.321834 5.31782 0 5.63966 0 6.03781V24.6465C0 25.0447 0.321834 25.3665 0.719985 25.3665H33.2849C34.7811 25.3665 35.9993 24.1498 35.9993 22.6529C35.9993 21.8616 35.653 21.1553 35.1115 20.6585C35.653 20.1617 35.9993 19.4555 35.9993 18.6642C35.9993 17.8729 35.653 17.1666 35.1115 16.6705C35.653 16.1745 35.9993 15.4682 35.9993 14.6769C35.9993 13.8856 35.653 13.1793 35.1115 12.6825C35.653 12.1857 35.9993 11.4794 35.9993 10.6882C35.9993 9.89692 35.653 9.19135 35.1115 8.69456C35.653 8.19777 35.9993 7.49145 35.9993 6.70091L36 6.70234ZM24.0367 2.71436C24.0367 2.01165 24.6084 1.4407 25.3111 1.4407H33.2864C33.9891 1.4407 34.5608 2.01165 34.5608 2.71436C34.5608 3.41707 33.9891 3.98873 33.2864 3.98873H25.3111C24.6084 3.98873 24.0367 3.41707 24.0367 2.71436ZM22.6565 11.2505C22.6695 11.3103 22.6939 11.3657 22.7105 11.424C22.7436 11.5421 22.776 11.6602 22.8243 11.771C22.8531 11.8373 22.8927 11.8963 22.9265 11.9597C22.9776 12.0554 23.0266 12.1512 23.0878 12.2398C23.1317 12.3031 23.185 12.3578 23.2339 12.4169C23.2987 12.4946 23.3614 12.5738 23.4348 12.6437C23.4478 12.6559 23.4571 12.6717 23.4708 12.684C23.4571 12.6962 23.4478 12.7121 23.4348 12.7243C23.3621 12.7941 23.2995 12.8733 23.2339 12.9511C23.1843 13.0101 23.1317 13.0656 23.0871 13.1289C23.0251 13.2168 22.9769 13.3133 22.9258 13.4083C22.8919 13.4717 22.8523 13.5307 22.8235 13.5969C22.7753 13.7078 22.7429 13.8259 22.7098 13.9432C22.6932 14.0023 22.668 14.057 22.6558 14.1175C22.6176 14.2989 22.596 14.4854 22.596 14.6776C22.596 14.8699 22.6176 15.0571 22.6558 15.2385C22.6688 15.299 22.6932 15.3537 22.7098 15.4127C22.7429 15.5301 22.7753 15.6482 22.8235 15.759C22.8523 15.8253 22.8919 15.8843 22.9258 15.9477C22.9769 16.0427 23.0259 16.1392 23.0871 16.227C23.131 16.2897 23.1828 16.3437 23.2318 16.402C23.2973 16.4812 23.3614 16.5604 23.4355 16.6317C23.4485 16.6439 23.4578 16.659 23.4708 16.6713C23.4571 16.6835 23.4478 16.6993 23.4348 16.7116C23.3621 16.7814 23.2995 16.8606 23.2339 16.9384C23.1843 16.9974 23.1317 17.0529 23.0871 17.1162C23.0251 17.2041 22.9769 17.3005 22.9258 17.3956C22.8919 17.4589 22.8523 17.518 22.8235 17.5842C22.7753 17.6951 22.7429 17.8132 22.7098 17.9305C22.6932 17.9896 22.668 18.0443 22.6558 18.1048C22.6176 18.2862 22.596 18.4727 22.596 18.6649C22.596 18.8571 22.6176 19.0443 22.6558 19.2258C22.6565 19.2301 22.6558 19.2351 22.6572 19.2395C22.6695 19.2971 22.6954 19.3496 22.712 19.4058C22.7451 19.521 22.776 19.6369 22.8235 19.7456C22.8271 19.7543 22.8286 19.7636 22.8322 19.7715C22.8588 19.8313 22.8984 19.8824 22.9287 19.9393C22.9791 20.0329 23.0266 20.1272 23.0871 20.2136C23.095 20.2251 23.1 20.2381 23.1079 20.2496C23.1454 20.3014 23.1936 20.3432 23.2339 20.3921C23.2987 20.4699 23.3614 20.5477 23.4334 20.6175C23.4463 20.6298 23.4557 20.6456 23.4694 20.6578C23.4557 20.6701 23.4463 20.6859 23.4334 20.6982C23.3722 20.7565 23.3196 20.8227 23.2642 20.8868C23.2397 20.9156 23.2138 20.9429 23.19 20.9732C23.1555 21.0164 23.118 21.0567 23.0863 21.1028C23.0532 21.1496 23.0273 21.2 22.9971 21.2497C22.9935 21.2561 22.9884 21.2612 22.9848 21.2669H6.67788C6.39781 19.981 5.38261 18.9659 4.09672 18.6858V11.9957C5.38261 11.7156 6.39709 10.7011 6.67788 9.41525H22.9128C22.8912 9.45485 22.8754 9.49806 22.856 9.53838C22.8452 9.56142 22.8329 9.58372 22.8221 9.60748C22.8142 9.62548 22.807 9.64277 22.7998 9.66076C22.7436 9.79684 22.6997 9.93796 22.6659 10.0834C22.6623 10.0985 22.6572 10.1129 22.6544 10.128C22.6493 10.1511 22.6486 10.1756 22.6443 10.1993C22.6148 10.3584 22.5946 10.5212 22.5946 10.6889C22.5946 10.8811 22.6162 11.0683 22.6544 11.2498L22.6565 11.2505ZM1.4407 23.9266V6.7578H22.5975C22.5989 6.83051 22.6169 6.89818 22.6234 6.96945C22.6342 7.07529 22.64 7.18185 22.6623 7.28337C22.6796 7.36185 22.7091 7.43457 22.7328 7.51017C22.7631 7.60665 22.7897 7.70384 22.83 7.79528C22.8581 7.85864 22.8948 7.91553 22.9272 7.97673H6.03636C5.63821 7.97673 5.31637 8.29856 5.31637 8.69671C5.31637 9.76517 4.44664 10.6342 3.37818 10.6342C2.98003 10.6342 2.6582 10.956 2.6582 11.3542V19.3295C2.6582 19.7276 2.98003 20.0494 3.37818 20.0494C4.44664 20.0494 5.31637 20.9192 5.31637 21.9876C5.31637 22.3858 5.63821 22.7076 6.03636 22.7076H22.5996C22.6025 22.8559 22.6198 23.0007 22.6457 23.1425C22.6515 23.1749 22.6565 23.2073 22.6637 23.2397C22.6976 23.3916 22.7429 23.5392 22.8012 23.6803C22.812 23.7063 22.8243 23.73 22.8358 23.7559C22.8617 23.8128 22.8848 23.8711 22.9143 23.9266H1.4407ZM34.56 22.6529C34.56 23.3556 33.9884 23.9266 33.2857 23.9266H25.3104C24.6077 23.9266 24.036 23.3556 24.036 22.6529C24.036 22.5096 24.0648 22.3743 24.1087 22.2461C24.1109 22.2411 24.1152 22.2367 24.1166 22.2317C24.2506 21.858 24.5465 21.5773 24.9029 21.452C24.9194 21.4462 24.9367 21.4412 24.954 21.4361C25.0685 21.4016 25.1873 21.3792 25.3097 21.3792H33.2849C33.9876 21.3792 34.5593 21.9509 34.5593 22.6536L34.56 22.6529ZM34.56 18.6649C34.56 19.3676 33.9884 19.9393 33.2857 19.9393H25.3104C24.6077 19.9393 24.036 19.3676 24.036 18.6649C24.036 17.9622 24.6077 17.3905 25.3104 17.3905H33.2857C33.9884 17.3905 34.56 17.9622 34.56 18.6649ZM34.56 14.6776C34.56 15.3803 33.9884 15.9513 33.2857 15.9513H25.3104C24.6077 15.9513 24.036 15.3803 24.036 14.6776C24.036 13.9749 24.6077 13.4032 25.3104 13.4032H33.2857C33.9884 13.4032 34.56 13.9749 34.56 14.6776ZM34.56 10.6896C34.56 11.3923 33.9884 11.964 33.2857 11.964H25.3104C24.6077 11.964 24.036 11.3923 24.036 10.6896C24.036 9.98693 24.6077 9.41597 25.3104 9.41597H33.2857C33.9884 9.41597 34.56 9.98693 34.56 10.6896ZM25.3104 7.976C24.6077 7.976 24.036 7.40434 24.036 6.70163C24.036 6.63108 24.0461 6.5634 24.0569 6.49644C24.0706 6.42732 24.09 6.35532 24.1166 6.279C24.121 6.26676 24.1217 6.25307 24.1253 6.24083C24.311 5.76636 24.7704 5.42797 25.3097 5.42797H33.2849C33.9876 5.42797 34.5593 5.99963 34.5593 6.70234C34.5593 7.40504 33.9876 7.97673 33.2849 7.97673H25.3097L25.3104 7.976Z" fill="#0084FF"/>
</svg>
