<svg width="36" height="34" viewBox="0 0 36 34" fill="none" xmlns="http://www.w3.org/2000/svg">
<path d="M20.8689 25.52V6.39584H21.9467C22.2232 6.39584 22.4752 6.23743 22.5947 5.98903C22.715 5.73919 22.6819 5.44397 22.5098 5.22725L18.5634 0.271432C18.4273 0.100069 18.2192 0 18.0004 0C17.7815 0 17.5734 0.100069 17.4373 0.271432L13.4902 5.22725C13.3181 5.44397 13.285 5.73919 13.4053 5.98903C13.5248 6.23815 13.7775 6.39584 14.0533 6.39584H15.1311V25.52L11.2863 31.9273C11.1523 32.1498 11.1495 32.4263 11.2769 32.6531C11.4051 32.8785 11.6441 33.0181 11.9033 33.0181H24.0967C24.3559 33.0181 24.5949 32.8792 24.7231 32.6531C24.8512 32.427 24.8476 32.1498 24.7137 31.9273L20.8689 25.52ZM13.1749 31.5781L16.4675 26.0902C16.5351 25.9786 16.5704 25.8505 16.5704 25.7194V5.67583C16.5704 5.27766 16.2486 4.95582 15.8504 4.95582H15.5466L17.9996 1.87633L20.452 4.95582H20.1481C19.75 4.95582 19.4281 5.27766 19.4281 5.67583V25.7194C19.4281 25.8505 19.4634 25.9779 19.5311 26.0902L22.8237 31.5781H13.1749Z" fill="#0084FF"/>
<path d="M35.7889 31.7891L29.4204 25.4213V11.6591H30.4983C30.7748 11.6591 31.0268 11.5007 31.1463 11.2523C31.2665 11.0024 31.2334 10.7072 31.0613 10.4905L27.115 5.5347C26.9789 5.36333 26.7708 5.26326 26.5519 5.26326C26.333 5.26326 26.1249 5.36333 25.9889 5.5347L22.0418 10.4905C21.8697 10.7072 21.8366 11.0024 21.9568 11.2523C22.0763 11.5014 22.329 11.6591 22.6048 11.6591H23.6827V25.7194C23.6827 25.8505 23.718 25.9779 23.7856 26.0902L27.7327 32.669C27.863 32.8857 28.097 33.0181 28.3498 33.0181H35.2799C35.5707 33.0181 35.8343 32.8425 35.9451 32.5739C36.0567 32.3046 35.9948 31.995 35.7889 31.7891ZM28.7573 31.5781L25.122 25.52V10.9391C25.122 10.5409 24.8001 10.2191 24.402 10.2191H24.0981L26.5512 7.1396L29.0035 10.2191H28.6997C28.3015 10.2191 27.9797 10.5409 27.9797 10.9391V25.7194C27.9797 25.9109 28.0553 26.0938 28.1906 26.2285L33.541 31.5781H28.7566H28.7573Z" fill="#0084FF"/>
<path d="M12.3166 25.7194V11.6591H13.3945C13.6709 11.6591 13.9229 11.5007 14.0425 11.2523C14.1627 11.0024 14.1296 10.7072 13.9575 10.4905L10.0104 5.53469C9.73753 5.19125 9.15649 5.19125 8.88432 5.53469L4.93796 10.4905C4.76588 10.7072 4.73275 11.0024 4.853 11.2523C4.97252 11.5014 5.22524 11.6591 5.501 11.6591H6.57886V25.4213L0.211104 31.7891C0.00518194 31.995 -0.0567464 32.3046 0.054855 32.5739C0.165736 32.8432 0.429268 33.0181 0.720151 33.0181H7.64951C7.90296 33.0181 8.13695 32.885 8.26656 32.6689L12.2137 26.0902C12.2813 25.9786 12.3166 25.8505 12.3166 25.7194ZM11.5966 10.2191C11.1984 10.2191 10.8766 10.5409 10.8766 10.9391V25.52L7.24128 31.5781H2.45753L7.80719 26.2285C7.94255 26.0931 8.01815 25.9109 8.01815 25.7194V10.9391C8.01815 10.5409 7.69631 10.2191 7.29814 10.2191H6.9943L9.44666 7.13959L11.8997 10.2191H11.5966Z" fill="#0084FF"/>
</svg>
