<svg width="36" height="37" viewBox="0 0 36 37" fill="none" xmlns="http://www.w3.org/2000/svg">
<path d="M35.28 34.5233H0.720711C0.322559 34.5233 0.000725083 34.9171 0.000725083 35.3153C0.000725083 35.7134 0.322559 36.0353 0.720711 36.0353H35.28C35.6782 36.0353 36 35.6414 36 35.2433C36 34.8451 35.6782 34.5233 35.28 34.5233Z" fill="#0084FF"/>
<path d="M0.719985 30.2394H7.19985C7.59801 30.2394 7.91984 29.9176 7.91984 29.5194V23.7595C7.91984 23.3614 7.59801 23.0395 7.19985 23.0395H0.719985C0.321834 23.0395 0 23.3614 0 23.7595V29.5194C0 29.9176 0.321834 30.2394 0.719985 30.2394ZM1.43997 24.4795H6.47987V28.7994H1.43997V24.4795Z" fill="#0084FF"/>
<path d="M10.0798 17.2797C9.68164 17.2797 9.35981 17.6015 9.35981 17.9996V29.5194C9.35981 29.9176 9.68164 30.2394 10.0798 30.2394H16.5597C16.9578 30.2394 17.2797 29.9176 17.2797 29.5194V17.9996C17.2797 17.6015 16.9578 17.2797 16.5597 17.2797H10.0798ZM15.8397 28.7994H10.7998V18.7196H15.8397V28.7994Z" fill="#0084FF"/>
<path d="M19.4396 20.1596C19.0415 20.1596 18.7196 20.4814 18.7196 20.8796V29.5194C18.7196 29.9176 19.0415 30.2394 19.4396 30.2394H25.9195C26.3176 30.2394 26.6395 29.9176 26.6395 29.5194V20.8796C26.6395 20.4814 26.3176 20.1596 25.9195 20.1596H19.4396ZM25.1995 28.7994H20.1596V21.5996H25.1995V28.7994Z" fill="#0084FF"/>
<path d="M28.0794 12.2398V29.5194C28.0794 29.9176 28.4013 30.2394 28.7994 30.2394H35.2793C35.6774 30.2394 35.9993 29.9176 35.9993 29.5194V12.2398C35.9993 11.8416 35.6774 11.5198 35.2793 11.5198H28.7994C28.4013 11.5198 28.0794 11.8416 28.0794 12.2398ZM29.5194 12.9597H34.5593V28.7994H29.5194V12.9597Z" fill="#0084FF"/>
<path d="M3.95992 17.2797C5.54821 17.2797 6.83986 15.988 6.83986 14.3997C6.83986 14.1182 6.78659 13.8518 6.711 13.5948L11.3571 10.7357C11.8726 11.2181 12.5594 11.5198 13.3197 11.5198C14.3414 11.5198 15.2349 10.9819 15.7461 10.177L19.809 11.4276C19.8082 11.4586 19.7996 11.4881 19.7996 11.5198C19.7996 13.1081 21.0913 14.3997 22.6795 14.3997C24.2678 14.3997 25.5595 13.1081 25.5595 11.5198C25.5595 11.0417 25.4313 10.5975 25.224 10.2L30.5166 5.31494C30.9594 5.59285 31.4785 5.75988 32.0394 5.75988C33.6276 5.75988 34.9193 4.46823 34.9193 2.87994C34.9193 1.29165 33.6276 0 32.0394 0C30.4511 0 29.1594 1.29165 29.1594 2.87994C29.1594 3.35801 29.2876 3.80296 29.4949 4.2004L24.2023 9.0855C23.7595 8.80758 23.2397 8.63983 22.6795 8.63983C21.6579 8.63983 20.7644 9.17765 20.2532 9.98188L16.1903 8.73126C16.191 8.7003 16.1997 8.67078 16.1997 8.6391C16.1997 7.05081 14.908 5.75916 13.3197 5.75916C11.7314 5.75916 10.4398 7.05081 10.4398 8.6391C10.4398 8.92062 10.4931 9.18773 10.5687 9.44477L5.92334 12.3038C5.40783 11.8207 4.72022 11.519 3.95992 11.519C2.37163 11.519 1.07998 12.8107 1.07998 14.399C1.07998 15.9873 2.37163 17.2789 3.95992 17.2789V17.2797ZM32.0394 1.43997C32.8335 1.43997 33.4793 2.0858 33.4793 2.87994C33.4793 3.67409 32.8335 4.31991 32.0394 4.31991C31.6426 4.31991 31.2834 4.15863 31.0227 3.89872C31.017 3.89152 31.0148 3.88288 31.0084 3.87568L30.9637 3.82816C30.7391 3.57401 30.5987 3.24425 30.5987 2.87994C30.5987 2.0858 31.2452 1.43997 32.0394 1.43997ZM22.6795 10.0798C23.077 10.0798 23.437 10.2418 23.6983 10.5031C23.7041 10.5096 23.7055 10.5183 23.7113 10.524L23.7495 10.5651C23.977 10.8199 24.1195 11.1519 24.1195 11.5198C24.1195 12.3139 23.4737 12.9597 22.6795 12.9597C21.8854 12.9597 21.2396 12.3139 21.2396 11.5198C21.2396 11.3909 21.2619 11.2685 21.2936 11.1497C21.2957 11.1432 21.3008 11.1389 21.3029 11.1331L21.3238 11.064C21.3253 11.0583 21.3238 11.0532 21.3253 11.0475C21.5218 10.4859 22.0517 10.0791 22.6795 10.0791V10.0798ZM13.3197 7.19985C14.1139 7.19985 14.7597 7.84568 14.7597 8.63983C14.7597 8.76942 14.7367 8.89326 14.7043 9.01278C14.7028 9.01782 14.6985 9.02142 14.6971 9.02646L14.6762 9.09557C14.6747 9.09989 14.6762 9.10422 14.6748 9.10854C14.4789 9.67157 13.9483 10.0798 13.3197 10.0798C12.5256 10.0798 11.8798 9.43397 11.8798 8.63983C11.8798 7.84568 12.5256 7.19985 13.3197 7.19985ZM3.95992 12.9597C4.45743 12.9597 4.89662 13.2139 5.1551 13.5984C5.15942 13.6056 5.15944 13.6135 5.16376 13.6207L5.19399 13.6689C5.32215 13.8842 5.39989 14.1319 5.39989 14.3997C5.39989 15.1939 4.75406 15.8397 3.95992 15.8397C3.16578 15.8397 2.51995 15.1939 2.51995 14.3997C2.51995 13.6056 3.16578 12.9597 3.95992 12.9597Z" fill="#0084FF"/>
</svg>
