<svg width="36" height="41" viewBox="0 0 36 41" fill="none" xmlns="http://www.w3.org/2000/svg">
<path d="M26.7919 24.6669L23.971 23.9617C23.9613 23.9577 23.9516 23.9528 23.9412 23.9488C23.8485 23.9133 23.7429 23.8658 23.6325 23.8086C23.6051 23.7941 23.5777 23.7787 23.5503 23.7634C23.1465 23.5386 22.6959 23.1654 22.4977 22.5529C22.4977 22.5529 22.4977 22.5521 22.4977 22.5513C22.4316 22.3465 22.3873 22.1233 22.3873 21.8662V21.2448C25.1823 19.4152 27.4028 15.9802 27.4028 11.8368V0.80474C27.4028 0.444474 27.1634 0.129342 26.8168 0.0310144C26.4687 -0.0681191 26.0995 0.0761484 25.9109 0.381609C25.8972 0.40337 24.5303 2.56577 22.5968 2.56577C21.5426 2.56577 20.3135 2.10154 19.1247 1.65342C17.7981 1.15292 16.4264 0.639517 15.1707 0.71689C12.993 0.858739 11.298 1.69533 10.1326 3.20248C7.67521 6.3804 8.50695 11.4136 8.60205 11.9383C8.63832 16.0366 10.8394 19.4322 13.6119 21.2464V21.8678C13.6119 22.1346 13.5636 22.3635 13.4934 22.5714C13.2887 23.1823 12.8334 23.5571 12.4288 23.7787C12.4135 23.7868 12.3982 23.7949 12.3828 23.8029C12.2571 23.869 12.1346 23.9238 12.0314 23.9625L10.7967 24.2712C10.7967 24.2712 10.7959 24.2712 10.7951 24.2712L9.20975 24.6669C3.52932 26.0717 0 29.9403 0 34.7624V39.491C0 39.9359 0.360266 40.297 0.805964 40.297H35.194C35.6397 40.297 36 39.9359 36 39.491V34.7624C36 29.9403 32.4707 26.0709 26.7919 24.6669ZM23.4374 25.4834L20.7633 28.1575L19.1392 26.5343L21.5321 24.1422C21.8191 24.5106 22.1914 24.8249 22.6274 25.0868C22.8789 25.2391 23.1441 25.3762 23.4374 25.4834ZM18.517 29.298C18.5001 29.3125 18.4808 29.3222 18.4654 29.3375L18.0004 29.8073L17.537 29.3375C17.52 29.3205 17.4991 29.3101 17.4814 29.2948L16.9301 28.7435L18.0004 27.6723L19.0715 28.7435L18.5178 29.2972L18.517 29.298ZM15.2376 28.1567L12.5634 25.4834C12.644 25.4535 12.7165 25.4148 12.7947 25.3818C12.9059 25.3342 13.0203 25.2907 13.1251 25.2367C13.1735 25.2117 13.2154 25.1811 13.2621 25.1545C13.3911 25.0812 13.5209 25.0086 13.6385 24.9248C13.6547 24.9135 13.6683 24.899 13.6845 24.8869C13.9851 24.6677 14.2478 24.4171 14.4646 24.1366L16.8616 26.5335L15.2392 28.1567H15.2376ZM11.4117 4.18334C12.2942 3.04451 13.5579 2.43682 15.2762 2.32479C15.3319 2.32076 15.3899 2.31915 15.4471 2.31915C16.3272 2.31915 17.412 2.72858 18.5557 3.16057C19.8807 3.66027 21.2493 4.17689 22.5976 4.17689C23.9122 4.17689 24.9978 3.57161 25.7917 2.9083V8.11725C25.7497 8.07856 25.7046 8.04391 25.6619 8.00603C25.6047 7.95606 25.5482 7.90528 25.4886 7.85773C25.4225 7.80453 25.3532 7.75456 25.2839 7.7046C25.2234 7.66027 25.163 7.61594 25.1001 7.57483C25.0276 7.52728 24.9526 7.48376 24.8777 7.43943C24.814 7.40155 24.7512 7.36287 24.6851 7.32821C24.6061 7.2863 24.5247 7.25003 24.4441 7.21215C24.378 7.18152 24.3135 7.14929 24.2466 7.12108C24.1612 7.08561 24.0725 7.05579 23.9847 7.02517C23.9186 7.00179 23.8541 6.976 23.7864 6.95585C23.6921 6.92684 23.5946 6.90508 23.4979 6.88171C23.4342 6.86639 23.3713 6.84786 23.3069 6.83496C23.1972 6.8132 23.0852 6.79869 22.9732 6.78418C22.9184 6.77693 22.8652 6.76565 22.8104 6.76001C22.6419 6.74308 22.4719 6.73421 22.2994 6.73421H13.7022C13.5249 6.73421 13.35 6.74389 13.1775 6.76162C13.113 6.76806 13.0518 6.78177 12.9881 6.79063C12.8809 6.80595 12.7729 6.81884 12.6673 6.8406C12.5972 6.85511 12.5295 6.87687 12.4602 6.8938C12.3651 6.91797 12.2684 6.93893 12.1749 6.96875C12.1016 6.99212 12.0314 7.02114 11.9597 7.04773C11.8743 7.07917 11.7872 7.10738 11.7034 7.14364C11.6309 7.17427 11.5624 7.21134 11.4915 7.246C11.4117 7.28469 11.3311 7.32015 11.2545 7.36287C11.1868 7.39994 11.1231 7.44266 11.057 7.48295C10.9813 7.5289 10.9039 7.57322 10.8306 7.62319C10.7685 7.6651 10.7113 7.71265 10.6508 7.75779C10.5783 7.81179 10.5041 7.86498 10.4348 7.92301C10.38 7.96895 10.3292 8.01892 10.276 8.06728C10.2067 8.13014 10.1358 8.1922 10.0705 8.2591C10.0641 8.26555 10.056 8.27199 10.0496 8.27844C10.1576 6.8946 10.5098 5.35118 11.4117 4.18656V4.18334ZM10.2099 11.8368C10.2099 9.91052 11.7759 8.34453 13.7022 8.34453H22.2994C24.2257 8.34453 25.7917 9.91132 25.7917 11.8368C25.7917 15.6772 23.5019 18.8744 20.8519 20.2841C20.7786 20.3228 20.7044 20.3615 20.6311 20.3977C20.486 20.4686 20.3401 20.5339 20.1934 20.5936C20.0548 20.6492 19.9162 20.7 19.7775 20.7451C19.6929 20.7733 19.6083 20.8031 19.5237 20.8273C18.5106 21.1086 17.491 21.1094 16.4779 20.8273C16.3949 20.8031 16.3119 20.7741 16.2289 20.7467C16.0887 20.7016 15.9484 20.65 15.8082 20.5936C15.6615 20.5331 15.5156 20.4686 15.3705 20.3977C15.2972 20.3623 15.2247 20.3244 15.1521 20.2857C12.5021 18.8769 10.2108 15.6788 10.2108 11.8376L10.2099 11.8368ZM15.5874 22.2353C15.784 22.3038 15.9807 22.3651 16.1781 22.4167C16.2676 22.4408 16.357 22.4634 16.4465 22.4844C16.594 22.5174 16.7423 22.544 16.8906 22.5674C17.0203 22.5891 17.1493 22.6117 17.2783 22.6262C17.3403 22.6327 17.4032 22.6335 17.4652 22.6383C17.6442 22.6528 17.8231 22.6721 18.0004 22.6721C18.1777 22.6721 18.3575 22.6528 18.5364 22.6375C18.5984 22.6327 18.6605 22.6318 18.7225 22.6254C18.8515 22.6109 18.9813 22.5883 19.1102 22.5666C19.2585 22.5432 19.406 22.5166 19.5543 22.4836C19.6438 22.4626 19.7324 22.44 19.8219 22.4167C20.0202 22.3643 20.2184 22.303 20.4167 22.2337C20.4707 22.2152 20.5239 22.1974 20.5771 22.1773C20.6456 22.1515 20.7149 22.1322 20.7834 22.1047C20.7923 22.2579 20.8156 22.4054 20.8414 22.5529L18.0004 25.3939L15.1578 22.5513C15.1836 22.4046 15.2077 22.2579 15.2174 22.1056C15.2851 22.133 15.3536 22.1523 15.4213 22.1773C15.4769 22.1982 15.5326 22.216 15.5874 22.2353ZM7.68408 33.9556C7.23838 33.9556 6.87812 34.3167 6.87812 34.7616V38.6842H1.61274V34.7616C1.61274 30.7173 4.67217 27.4483 9.59903 26.2305L10.7451 25.9444L14.6677 29.867C14.8193 30.0185 15.0232 30.1031 15.2376 30.1031C15.4431 30.1031 15.6373 30.0209 15.7872 29.8807L16.0991 30.1926L14.7145 38.6842H8.49004V34.7616C8.49004 34.3167 8.12978 33.9556 7.68408 33.9556ZM16.3474 38.6842L17.5047 31.5901C17.5434 31.6208 17.5902 31.6377 17.6337 31.6603C17.6611 31.6748 17.6845 31.6925 17.7135 31.7038C17.8046 31.7384 17.9005 31.761 18.0004 31.761C18.1003 31.761 18.1963 31.7392 18.2881 31.7038C18.3163 31.6933 18.3397 31.6748 18.3663 31.6611C18.4107 31.6385 18.4574 31.6208 18.4969 31.5901L19.6534 38.685L16.3474 38.6842ZM34.3889 38.6842H29.1235V34.7616C29.1235 34.3167 28.7632 33.9556 28.3175 33.9556C27.8718 33.9556 27.5116 34.3167 27.5116 34.7616V38.6842H21.2871L19.9025 30.1926L20.2144 29.8807C20.3691 30.0266 20.5658 30.1031 20.764 30.1031C20.9704 30.1031 21.1767 30.0241 21.3339 29.867L25.2565 25.9444L26.4042 26.2313C31.3294 27.4491 34.3889 30.7181 34.3889 34.7624V38.6842Z" fill="#0084FF"/>
</svg>
