<svg width="36" height="36" viewBox="0 0 36 36" fill="none" xmlns="http://www.w3.org/2000/svg">
<path d="M21.173 14.508H17.4787C17.2447 13.7887 16.681 13.2257 15.9624 12.9917V7.97759C15.9624 7.57943 15.6334 7.25183 15.2352 7.25183C14.837 7.25183 14.508 7.57943 14.508 7.97759V12.9917C13.5583 13.3006 12.8657 14.184 12.8657 15.2352C12.8657 16.5413 13.9291 17.6047 15.2352 17.6047C16.2864 17.6047 17.1698 16.9114 17.4787 15.9617H21.173C21.5712 15.9617 21.9002 15.6334 21.9002 15.2352C21.9002 14.837 21.5712 14.508 21.173 14.508ZM15.2352 16.1647C14.7226 16.1647 14.3057 15.7478 14.3057 15.2352C14.3057 14.729 14.7139 14.3186 15.2179 14.3093C15.2237 14.3093 15.2294 14.3129 15.2352 14.3129C15.241 14.3129 15.2467 14.3093 15.2525 14.3093C15.7514 14.3186 16.1525 14.7211 16.1618 15.2201C16.1618 15.2258 16.159 15.2302 16.159 15.2359C16.159 15.2417 16.1618 15.246 16.1618 15.2518C16.1532 15.7565 15.7428 16.1654 15.2352 16.1654V16.1647Z" fill="#0084FF"/>
<path d="M15.2352 5.40576C15.6334 5.40576 15.9624 5.07671 15.9624 4.67855V4.01904C15.9624 3.62088 15.6334 3.29401 15.2352 3.29401C14.837 3.29401 14.508 3.62088 14.508 4.01904V4.67855C14.508 5.07671 14.837 5.40576 15.2352 5.40576Z" fill="#0084FF"/>
<path d="M15.2352 25.0661C14.837 25.0661 14.508 25.3937 14.508 25.7918V26.4514C14.508 26.8495 14.837 27.1779 15.2352 27.1779C15.6334 27.1779 15.9624 26.8495 15.9624 26.4514V25.7918C15.9624 25.3937 15.6334 25.0661 15.2352 25.0661Z" fill="#0084FF"/>
<path d="M4.67784 14.508H4.01832C3.62016 14.508 3.29112 14.837 3.29112 15.2352C3.29112 15.6334 3.62016 15.9617 4.01832 15.9617H4.67784C5.076 15.9617 5.40504 15.6334 5.40504 15.2352C5.40504 14.837 5.076 14.508 4.67784 14.508Z" fill="#0084FF"/>
<path d="M25.7911 15.9617H26.4514C26.8495 15.9617 27.1786 15.6334 27.1786 15.2352C27.1786 14.837 26.8495 14.508 26.4514 14.508H25.7911C25.393 14.508 25.0646 14.837 25.0646 15.2352C25.0646 15.6334 25.393 15.9617 25.7911 15.9617Z" fill="#0084FF"/>
<path d="M29.7936 19.6366C30.2335 18.1915 30.4704 16.7162 30.4704 15.2352C30.4704 6.83424 23.6362 0 15.2352 0C6.83424 0 0 6.83424 0 15.2352C0 23.6362 6.83424 30.4704 15.2352 30.4704C16.7162 30.4704 18.1922 30.2335 19.6366 29.7936C20.5769 33.359 23.8205 36 27.6768 36C32.2661 36 36 32.2654 36 27.6761C36 23.819 33.3598 20.5762 29.7936 19.6366ZM19.3874 28.3766C18.0252 28.8115 16.6306 29.0304 15.2345 29.0304C7.62768 29.0304 1.43928 22.842 1.43928 15.2352C1.43928 7.6284 7.62768 1.44 15.2345 1.44C22.8413 1.44 29.0297 7.6284 29.0297 15.2352C29.0297 16.6306 28.8101 18.0259 28.3759 19.3882C28.1326 19.3651 27.9007 19.3536 27.6761 19.3536C23.0868 19.3536 19.3522 23.0875 19.3522 27.6768C19.3522 27.9014 19.3637 28.134 19.3867 28.3774L19.3874 28.3766ZM27.6768 34.56C24.251 34.56 21.4106 32.0422 20.8872 28.7618C20.8872 28.7597 20.8872 28.7582 20.8872 28.7561C20.857 28.5667 20.8361 28.3932 20.821 28.2262C20.8066 28.0447 20.7929 27.8626 20.7929 27.6768C20.7929 23.8817 23.881 20.7936 27.6768 20.7936C27.8611 20.7936 28.0418 20.8073 28.2218 20.821C28.391 20.8368 28.5667 20.8577 28.7554 20.8872C28.7575 20.8872 28.7597 20.8872 28.7618 20.8872C32.0422 21.4099 34.5593 24.2503 34.5593 27.6761C34.5593 31.4712 31.4726 34.56 27.6768 34.56Z" fill="#0084FF"/>
<path d="M28.2787 26.8913L27.4068 26.694C26.91 26.6091 26.5356 26.2908 26.5356 25.9546C26.5356 25.5478 27.0684 25.1906 27.6761 25.1906C28.2838 25.1906 28.818 25.547 28.818 25.9546C28.818 26.3527 29.1694 26.7041 29.5675 26.7041C29.9657 26.7041 30.3178 26.3527 30.3178 25.9546C30.3178 24.9178 29.5294 24.0566 28.4263 23.7838V23.3626C28.4263 22.9644 28.0742 22.6123 27.6761 22.6123C27.2779 22.6123 26.9266 22.9644 26.9266 23.3626V23.7838C25.8242 24.0566 25.0358 24.917 25.0358 25.9546C25.0358 27.0302 25.9258 27.9634 27.1145 28.165L27.9864 28.3608C28.5689 28.4609 29.0074 28.8425 29.0074 29.2493C29.0074 29.7446 28.3975 30.1637 27.6761 30.1637C26.9546 30.1637 26.3462 29.7454 26.3462 29.2493C26.3462 28.8511 25.9942 28.499 25.596 28.499C25.1978 28.499 24.8465 28.8511 24.8465 29.2493C24.8465 30.3732 25.7162 31.3013 26.9266 31.577V31.991C26.9266 32.3892 27.2779 32.7413 27.6761 32.7413C28.0742 32.7413 28.4263 32.3892 28.4263 31.991V31.577C29.6366 31.3006 30.5071 30.3725 30.5071 29.2493C30.5071 28.1016 29.5538 27.1066 28.2787 26.8913Z" fill="#0084FF"/>
</svg>
