<svg width="26" height="30" viewBox="0 0 26 30" fill="none" xmlns="http://www.w3.org/2000/svg">
<path fill-rule="evenodd" clip-rule="evenodd" d="M25.7567 6.13731C25.9189 6.13744 26 6.21688 26 6.37563V19.5315C25.9998 19.6846 25.9213 19.7612 25.7647 19.7612C25.5034 19.7612 25.2422 19.7613 24.9809 19.7615C24.0499 19.7619 23.1189 19.7623 22.1878 19.7584C22.0433 19.7578 21.9652 19.8017 21.8982 19.9349C21.6687 20.3912 21.4405 20.8482 21.2122 21.3052C20.5336 22.6634 19.8551 24.0217 19.1456 25.3636C18.1463 27.2537 16.6016 28.5461 14.5851 29.2541C13.2479 29.7237 11.8654 29.844 10.4743 29.5684C7.6389 29.0068 5.6058 27.4008 4.39799 24.7725C3.93633 23.768 3.72514 22.7013 3.71284 21.5966C3.70872 21.2287 3.70941 20.8608 3.7101 20.4929C3.71042 20.3225 3.71074 20.152 3.71058 19.9815C3.71033 19.8347 3.63437 19.7613 3.4827 19.7613C2.97556 19.7612 2.46841 19.7612 1.96127 19.7612C1.38072 19.7613 0.800179 19.7613 0.219634 19.7611C0.000602369 19.7611 3.75351e-05 19.7604 3.75351e-05 19.5472C-2.52246e-05 15.1513 -2.52246e-05 10.7555 0.000163054 6.35976C0.000539613 6.21146 0.076437 6.13731 0.227855 6.13731C0.483907 6.13728 0.739957 6.13714 0.996003 6.137C1.89565 6.1365 2.79527 6.136 3.69489 6.14045C3.83578 6.14114 3.9062 6.09547 3.96852 5.96951C4.56317 4.76822 6.07982 4.31901 7.23811 4.99499C7.26902 5.01303 7.30053 5.03 7.33909 5.05077C7.3598 5.06192 7.38254 5.07417 7.40832 5.08827C7.41014 5.06005 7.41211 5.03507 7.41391 5.0122C7.41731 4.96899 7.42012 4.93334 7.42024 4.89769C7.42068 4.76745 7.42051 4.63721 7.42033 4.50697C7.42009 4.31836 7.41984 4.12976 7.42143 3.94118C7.43072 2.82539 8.10872 1.92358 9.18329 1.62843C9.8186 1.45391 10.4256 1.55823 10.9922 1.89441C11.0257 1.9143 11.0591 1.93431 11.0953 1.95599C11.111 1.96542 11.1272 1.97517 11.1443 1.98537C11.468 0.732826 12.2368 -0.0159881 13.5405 0.000259089C14.7172 0.014938 15.4493 0.703406 15.7976 1.83111C15.8183 1.82312 15.8388 1.81569 15.8592 1.80833C15.902 1.79282 15.9438 1.77768 15.9837 1.75853C17.1785 1.1858 18.7363 1.83651 19.1412 3.0952C19.2307 3.3734 19.2704 3.67652 19.2794 3.96985C19.2936 4.42923 19.2909 4.88911 19.2882 5.34898C19.287 5.54258 19.2859 5.73618 19.286 5.92974C19.2861 6.13612 19.2867 6.13712 19.4973 6.13712C20.8892 6.13725 22.281 6.13726 23.6729 6.13728C24.3675 6.13728 25.0621 6.13729 25.7567 6.13731ZM15.8318 4.5936C15.8321 4.70644 15.8324 4.81929 15.8322 4.93213L15.8322 4.93207C15.8322 5.03019 15.8327 5.12831 15.8333 5.22643C15.8347 5.46808 15.8361 5.7097 15.829 5.95107C15.8248 6.09785 15.8752 6.14089 16.0172 6.13957C16.6288 6.13392 17.2406 6.13317 17.8523 6.14007C18.0019 6.14177 18.0532 6.09578 18.0515 5.9441C18.0474 5.59121 18.0478 5.23824 18.0482 4.88528C18.0485 4.65292 18.0487 4.42055 18.0477 4.18821C18.047 4.02656 18.0446 3.86364 18.0242 3.70368C17.9641 3.23113 17.5164 2.82414 17.0409 2.79904C16.3592 2.76304 15.8408 3.24625 15.8332 3.92876C15.8308 4.15035 15.8313 4.37197 15.8318 4.5936ZM13.5735 1.23273C12.9055 1.20036 12.3848 1.68953 12.3799 2.36119C12.3769 2.76664 12.3777 3.17216 12.3784 3.57766C12.3787 3.75712 12.379 3.93657 12.379 4.11601H12.3785C12.3785 4.3162 12.3785 4.5164 12.3785 4.71659C12.3785 5.11698 12.3784 5.51737 12.3785 5.91776C12.3786 6.13625 12.3788 6.13694 12.5908 6.13706C13.1865 6.13744 13.7821 6.13737 14.3778 6.13706C14.5917 6.137 14.5925 6.13637 14.5925 5.91688C14.5928 4.76797 14.593 3.61899 14.5919 2.47002C14.5919 2.37103 14.5863 2.27148 14.5754 2.17312C14.5206 1.6793 14.0689 1.25675 13.5735 1.23273ZM9.76105 2.79697C9.16954 2.80093 8.67763 3.27693 8.67148 3.86684H8.67155C8.66736 4.26584 8.66775 4.66487 8.66814 5.06392C8.66844 5.37017 8.66874 5.67643 8.66696 5.98268C8.66627 6.09604 8.70016 6.13988 8.8184 6.13907C9.45083 6.13487 10.0833 6.13461 10.7157 6.13926C10.8408 6.1402 10.8785 6.09459 10.8766 5.97402C10.8725 5.71461 10.8732 5.45509 10.874 5.1956C10.8743 5.0946 10.8745 4.9936 10.8745 4.89261H10.8728C10.8728 4.7855 10.8735 4.67837 10.8742 4.57124C10.8757 4.33351 10.8772 4.09579 10.8712 3.85825C10.856 3.25585 10.3667 2.7929 9.76105 2.79697ZM6.63411 6.11968H5.49302C5.68431 5.87529 6.40485 5.86494 6.63411 6.11968ZM21.3142 18.3391C21.6468 17.6791 21.9795 17.0191 22.3121 16.3591L22.312 16.3591C22.5239 15.9386 22.5325 15.5134 22.3143 15.096C22.0601 14.6098 21.6465 14.3507 21.0998 14.348C20.5253 14.3452 20.1063 14.6254 19.8433 15.1339C18.8583 17.0379 17.8736 18.942 16.8937 20.8486C16.8225 20.9871 16.7421 21.0501 16.581 21.044C16.3643 21.0358 16.1474 21.0373 15.9303 21.0389C15.8231 21.0396 15.7158 21.0404 15.6086 21.04C15.4259 21.0393 15.4117 21.0153 15.4945 20.8533C15.5291 20.7854 15.5636 20.7175 15.5982 20.6496C15.7221 20.406 15.846 20.1623 15.9745 19.921C16.0386 19.8005 16.0056 19.758 15.8784 19.7613C15.8473 19.7621 15.8162 19.7619 15.7851 19.7616C15.7692 19.7614 15.7532 19.7613 15.7373 19.7613H10.4979C9.90879 19.7613 9.31966 19.7612 8.73054 19.7612C7.55229 19.7612 6.37404 19.7612 5.19579 19.7613C4.95761 19.7613 4.95699 19.7616 4.95717 19.9899C4.95761 20.5283 4.95818 21.0666 4.95969 21.6049C4.96232 22.5422 5.14614 23.4456 5.54059 24.2932C6.60493 26.5801 8.38906 27.9536 10.8769 28.3774C11.9805 28.5654 13.0743 28.4535 14.1387 28.0919C15.8405 27.5139 17.1216 26.4196 18.0243 24.884C18.2325 24.5299 18.4083 24.1569 18.5842 23.7839C18.6777 23.5856 18.7712 23.3874 18.8695 23.1919C19.6836 21.5739 20.4989 19.9565 21.3142 18.3391ZM3.24333 10.7646C3.13099 10.8212 3.08712 10.8877 3.08763 11.0172C3.09277 12.303 3.09315 13.5888 3.08731 14.8745C3.08669 15.0154 3.13175 15.0889 3.25576 15.1514C3.85242 15.4522 4.30661 15.9018 4.60541 16.5001C4.66823 16.6259 4.74367 16.6672 4.88293 16.6667C5.99165 16.6626 7.1004 16.663 8.20913 16.6633C8.51754 16.6634 8.82594 16.6635 9.13434 16.6635C9.61393 16.6635 10.0935 16.6635 10.5731 16.6634C12.865 16.6633 15.1569 16.6631 17.4489 16.6666C17.5988 16.6669 17.6835 16.6255 17.7526 16.487C17.9287 16.134 18.1097 15.7835 18.2906 15.433C18.4327 15.1577 18.5747 14.8825 18.7145 14.6062C19.0956 13.8527 19.6889 13.3566 20.511 13.1687C21.3156 12.9847 22.0544 13.1641 22.7129 13.6646C22.7466 13.6902 22.7807 13.7153 22.8215 13.7455C22.8431 13.7614 22.8667 13.7788 22.8931 13.7984C22.8958 13.7709 22.8985 13.7476 22.9009 13.7269C22.9054 13.689 22.9088 13.6602 22.9088 13.6313C22.909 13.3663 22.9089 13.1014 22.9088 12.8364C22.9087 12.218 22.9086 11.5997 22.9118 10.9813C22.9124 10.866 22.8599 10.8148 22.768 10.7688C22.1651 10.4675 21.7025 10.0201 21.4005 9.41699C21.3334 9.283 21.2512 9.24291 21.1089 9.24436C20.6448 9.24896 20.1806 9.24826 19.7164 9.24756C19.5478 9.24731 19.3793 9.24705 19.2108 9.24705C18.6151 9.24705 18.0195 9.24706 17.4238 9.24707C13.2504 9.24711 9.07691 9.24716 4.90345 9.24486C4.76613 9.24473 4.67388 9.26801 4.60522 9.40651C4.30554 10.0109 3.8447 10.4611 3.24333 10.7646ZM24.1724 18.5253C24.285 18.5253 24.3976 18.5252 24.5102 18.5252V18.5253C24.6775 18.5251 24.7612 18.4411 24.7612 18.2732V7.62566C24.7609 7.46327 24.6769 7.38207 24.5092 7.38207H1.49409C1.3236 7.38212 1.23835 7.46724 1.23835 7.63745V18.2693C1.23835 18.2824 1.23859 18.2955 1.23883 18.3086C1.23926 18.3321 1.23969 18.3556 1.23873 18.3791C1.23427 18.4863 1.28592 18.5324 1.39142 18.5255C1.41937 18.5236 1.4475 18.5242 1.47564 18.5248C1.48939 18.5251 1.50314 18.5253 1.51688 18.5253H16.4524C16.4658 18.5253 16.4792 18.5257 16.4927 18.5261C16.5266 18.5271 16.5604 18.5281 16.5933 18.5228C16.6321 18.5166 16.6873 18.5067 16.7031 18.4797C16.7781 18.351 16.8483 18.2195 16.9249 18.0758C16.9513 18.0264 16.9784 17.9756 17.0067 17.9229C16.966 17.9211 16.9303 17.9192 16.8978 17.9175C16.8364 17.9141 16.7867 17.9115 16.7369 17.9115C12.4905 17.911 8.24421 17.911 3.99783 17.911C3.9812 17.911 3.96453 17.9107 3.94787 17.9103C3.91215 17.9095 3.87643 17.9088 3.84099 17.9115C3.74836 17.9186 3.71604 17.8786 3.70437 17.7864C3.68479 17.6319 3.66445 17.4732 3.61274 17.3276C3.35065 16.589 2.82084 16.1675 2.04707 16.0658C1.87925 16.0437 1.84724 15.9778 1.84756 15.8268C1.85069 14.359 1.85053 12.8912 1.85037 11.4234C1.85032 10.9781 1.85028 10.5328 1.85032 10.0875C1.85032 9.86591 1.85095 9.86583 2.072 9.83788L2.07224 9.83785C2.93562 9.72857 3.58895 9.07975 3.70016 8.2211C3.71903 8.07523 3.80135 8.00229 3.94712 8.00229H22.0516C22.0616 8.00229 22.0716 8.0026 22.0816 8.00291C22.1031 8.00358 22.1245 8.00425 22.1457 8.00185C22.2516 7.98993 22.2877 8.03152 22.2961 8.14155C22.3635 9.02499 23.0359 9.72688 23.9107 9.83597C24.0701 9.85579 24.1498 9.94437 24.1498 10.1017V15.6842V15.6863C24.1498 16.0227 24.1498 16.0267 23.8162 16.0857C23.7189 16.103 23.6792 16.1389 23.6576 16.2391C23.6216 16.4062 23.5761 16.5761 23.5029 16.7297C23.3195 17.1142 23.1291 17.4954 22.9387 17.8766C22.8635 18.0273 22.7883 18.1779 22.7135 18.3288C22.6279 18.5013 22.6409 18.5245 22.8315 18.5248C23.2785 18.5256 23.7255 18.5255 24.1724 18.5253ZM16.091 12.9595C16.0877 14.6732 14.7178 16.0414 13.0031 16.0439C11.2844 16.0463 9.90635 14.6678 9.90961 12.9492C9.91288 11.2363 11.2844 9.86505 12.9974 9.86192C14.7134 9.85878 16.0943 11.2415 16.091 12.9595ZM14.8541 12.9748C14.8713 11.9678 14.0526 11.1225 13.0365 11.0982C12.0171 11.0738 11.1623 11.9032 11.1457 12.9326C11.1292 13.9496 11.9469 14.7849 12.9788 14.8052C13.9936 14.8252 14.8366 14.0024 14.8541 12.9748Z" fill="#0084FF"/>
</svg>
